<svg id="visual" viewBox="0 0 1200 1600" width="1200" height="1600" xmlns="http://www.w3.org/2000/svg" xmlns:xlink="http://www.w3.org/1999/xlink" version="1.1"><rect x="0" y="0" width="1200" height="1600" fill="#101010"></rect><path d="M0 567L28.5 553.8C57 540.7 114 514.3 171.2 525.2C228.3 536 285.7 584 342.8 589.2C400 594.3 457 556.7 514.2 523.2C571.3 489.7 628.7 460.3 685.8 471.2C743 482 800 533 857.2 555.8C914.3 578.7 971.7 573.3 1028.8 551.3C1086 529.3 1143 490.7 1171.5 471.3L1200 452L1200 0L1171.5 0C1143 0 1086 0 1028.8 0C971.7 0 914.3 0 857.2 0C800 0 743 0 685.8 0C628.7 0 571.3 0 514.2 0C457 0 400 0 342.8 0C285.7 0 228.3 0 171.2 0C114 0 57 0 28.5 0L0 0Z" fill="#4e4d4d"></path><path d="M0 493L28.5 471.5C57 450 114 407 171.2 394.8C228.3 382.7 285.7 401.3 342.8 415.7C400 430 457 440 514.2 430.8C571.3 421.7 628.7 393.3 685.8 371.8C743 350.3 800 335.7 857.2 362C914.3 388.3 971.7 455.7 1028.8 466.2C1086 476.7 1143 430.3 1171.5 407.2L1200 384L1200 0L1171.5 0C1143 0 1086 0 1028.8 0C971.7 0 914.3 0 857.2 0C800 0 743 0 685.8 0C628.7 0 571.3 0 514.2 0C457 0 400 0 342.8 0C285.7 0 228.3 0 171.2 0C114 0 57 0 28.5 0L0 0Z" fill="#3e3d3d"></path><path d="M0 361L28.5 368.5C57 376 114 391 171.2 387.3C228.3 383.7 285.7 361.3 342.8 362.7C400 364 457 389 514.2 394.5C571.3 400 628.7 386 685.8 376.2C743 366.3 800 360.7 857.2 365.5C914.3 370.3 971.7 385.7 1028.8 386.5C1086 387.3 1143 373.7 1171.5 366.8L1200 360L1200 0L1171.5 0C1143 0 1086 0 1028.8 0C971.7 0 914.3 0 857.2 0C800 0 743 0 685.8 0C628.7 0 571.3 0 514.2 0C457 0 400 0 342.8 0C285.7 0 228.3 0 171.2 0C114 0 57 0 28.5 0L0 0Z" fill="#2e2e2e"></path><path d="M0 250L28.5 248.7C57 247.3 114 244.7 171.2 237.3C228.3 230 285.7 218 342.8 218.7C400 219.3 457 232.7 514.2 234.3C571.3 236 628.7 226 685.8 233.5C743 241 800 266 857.2 262.8C914.3 259.7 971.7 228.3 1028.8 232.3C1086 236.3 1143 275.7 1171.5 295.3L1200 315L1200 0L1171.5 0C1143 0 1086 0 1028.8 0C971.7 0 914.3 0 857.2 0C800 0 743 0 685.8 0C628.7 0 571.3 0 514.2 0C457 0 400 0 342.8 0C285.7 0 228.3 0 171.2 0C114 0 57 0 28.5 0L0 0Z" fill="#1f1f1f"></path><path d="M0 197L28.5 193C57 189 114 181 171.2 170.7C228.3 160.3 285.7 147.7 342.8 133.8C400 120 457 105 514.2 112.7C571.3 120.3 628.7 150.7 685.8 151.5C743 152.3 800 123.7 857.2 122.3C914.3 121 971.7 147 1028.8 157.5C1086 168 1143 163 1171.5 160.5L1200 158L1200 0L1171.5 0C1143 0 1086 0 1028.8 0C971.7 0 914.3 0 857.2 0C800 0 743 0 685.8 0C628.7 0 571.3 0 514.2 0C457 0 400 0 342.8 0C285.7 0 228.3 0 171.2 0C114 0 57 0 28.5 0L0 0Z" fill="#101010"></path></svg>